# xmcd CD database file generated by OrangeCD 5.2
#
# Track frame offsets:
#	150
#	19700
#	34115
#	51807
#	73432
#	90867
#	103432
#	115990
#	129532
#	138557
#	146872
#	161870
#	172177
#	183415
#	205242
#	218012
#	231685
#	246835
#
# Disc length: 3621 seconds
#
# Revision: 1
# Processed by: cddbd v1.5.1PL0 Copyright (c) Steve Scherf et al.
# Submitted via: OrangeCD 5.2
#
DISCID=1e0e2312
DTITLE=Louis Armstrong - Hello Dolly Disc 2
DYEAR=1900
DGENRE=Blues
TTITLE0=When The Saints Go Marching In
TTITLE1=Cabaret
TTITLE2=Tea For Two
TTITLE3=La Vie En Rose
TTITLE4=Jelly Roll Blues
TTITLE5=C'est Si Bon
TTITLE6=Snake Rag
TTITLE7=Muskrat Ramble
TTITLE8=Stomping At The Savoy
TTITLE9=Chimes Blues
TTITLE10=Way Down Yonder In New Orleans
TTITLE11=Dippermouth Blues
TTITLE12=St. James Infirmary
TTITLE13=Lover
TTITLE14=Ain't Misbehavin'
TTITLE15=New Orleans Stomp
TTITLE16=Sweethearts On Parade
TTITLE17=Bonus Track
EXTD=CD 2 contains a number not mentioned on the cover, i just called it Bonus 
EXTD=Track.\n\nOn my cover only 17 songs are named but the disc have 18 songs :
EXTD=O)
EXTT0=
EXTT1=
EXTT2=
EXTT3=
EXTT4=
EXTT5=
EXTT6=
EXTT7=
EXTT8=
EXTT9=
EXTT10=
EXTT11=
EXTT12=
EXTT13=
EXTT14=
EXTT15=
EXTT16=
EXTT17=
PLAYORDER=
